<svg id="Line" xmlns="http://www.w3.org/2000/svg" width="64" height="64" viewBox="0 0 64 64"><title>camera</title><path d="M22,29H57V28a3.00328,3.00328,0,0,0-3-3H16a3.00328,3.00328,0,0,0-3,3V54a3.00328,3.00328,0,0,0,3,3h1V34A5.00588,5.00588,0,0,1,22,29Z" style="fill:#c4a2fc"/><circle cx="31" cy="43" r="4" style="fill:#c4a2fc"/><path d="M41,49H55V39H41Zm3-8h8a1,1,0,0,1,0,2H44a1,1,0,0,1,0-2Zm0,4h8a1,1,0,0,1,0,2H44a1,1,0,0,1,0-2Z" style="fill:#c4a2fc"/><path d="M60,31H22a3.00328,3.00328,0,0,0-3,3V60a3.00328,3.00328,0,0,0,3,3H60a3.00328,3.00328,0,0,0,3-3V34A3.00328,3.00328,0,0,0,60,31ZM37,53v7a1,1,0,0,1-2,0V53a4,4,0,0,0-8,0v7a1,1,0,0,1-2,0V53a5.99707,5.99707,0,0,1,2.69043-5,6,6,0,1,1,6.61914,0A5.99707,5.99707,0,0,1,37,53Zm20-3a.99974.99974,0,0,1-1,1H49v9a1,1,0,0,1-2,0V51H40a.99974.99974,0,0,1-1-1V38a.99974.99974,0,0,1,1-1H56a.99974.99974,0,0,1,1,1Z" style="fill:#c4a2fc"/><path d="M48,20H35.72626A7.95785,7.95785,0,0,1,41,18a1,1,0,0,0,0-2,8.00917,8.00917,0,0,1-8-8,1,1,0,0,0-2,0,8.00917,8.00917,0,0,1-8,8,1,1,0,0,0,0,2,7.95785,7.95785,0,0,1,5.27374,2H21.41406l-1.82812-1.82812A4.025,4.025,0,0,0,16.75781,17H4a3.00328,3.00328,0,0,0-3,3V48a3.00328,3.00328,0,0,0,3,3H48a3.00328,3.00328,0,0,0,3-3V23A3.00328,3.00328,0,0,0,48,20ZM32,12.35693A10.064,10.064,0,0,0,36.64258,17,10.064,10.064,0,0,0,32,21.64307,10.064,10.064,0,0,0,27.35742,17,10.064,10.064,0,0,0,32,12.35693ZM49,48a1.001,1.001,0,0,1-1,1H4a1.001,1.001,0,0,1-1-1V20a1.001,1.001,0,0,1,1-1H16.75781a2.01233,2.01233,0,0,1,1.41407.58594L20.293,21.707A.99928.99928,0,0,0,21,22h8.91754A7.94017,7.94017,0,0,1,31,26a1,1,0,0,0,2,0,7.94017,7.94017,0,0,1,1.08246-4H48a1.001,1.001,0,0,1,1,1Z" style="fill:#151a6a"/><path d="M18,26A10,10,0,1,0,28,36,10.01146,10.01146,0,0,0,18,26Zm0,18a8,8,0,1,1,8-8A8.00917,8.00917,0,0,1,18,44Z" style="fill:#151a6a"/><path d="M18,30a6,6,0,1,0,6,6A6.00657,6.00657,0,0,0,18,30Zm0,10a4,4,0,1,1,4-4A4.00427,4.00427,0,0,1,18,40Z" style="fill:#151a6a"/><path d="M13,14a1,1,0,0,0,2,0,5.00588,5.00588,0,0,1,5-5,1,1,0,0,0,0-2,5.00588,5.00588,0,0,1-5-5,1,1,0,0,0-2,0A5.00588,5.00588,0,0,1,8,7,1,1,0,0,0,8,9,5.00588,5.00588,0,0,1,13,14Zm1-8.39746A7.05712,7.05712,0,0,0,16.39746,8,7.05712,7.05712,0,0,0,14,10.39746,7.05712,7.05712,0,0,0,11.60254,8,7.05712,7.05712,0,0,0,14,5.60254Z" style="fill:#151a6a"/><path d="M45,45H33a1,1,0,0,0,0,2H45a1,1,0,0,0,0-2Z" style="fill:#151a6a"/><path d="M45,41H36a1,1,0,0,0,0,2h9a1,1,0,0,0,0-2Z" style="fill:#151a6a"/><path d="M11,22a.99974.99974,0,0,0-1-1H7a1,1,0,0,0,0,2h3A.99974.99974,0,0,0,11,22Z" style="fill:#151a6a"/><path d="M14,23h2a1,1,0,0,0,0-2H14a1,1,0,0,0,0,2Z" style="fill:#151a6a"/><path d="M46,25H38a.99974.99974,0,0,0-1,1v4a.99974.99974,0,0,0,1,1h8a.99974.99974,0,0,0,1-1V26A.99974.99974,0,0,0,46,25Zm-1,4H39V27h6Z" style="fill:#151a6a"/></svg>