<svg id="Line" xmlns="http://www.w3.org/2000/svg" width="64" height="64" viewBox="0 0 64 64"><title>shopping cart</title><path d="M38.995,44.041a2.538,2.538,0,0,0,0,4.959,2.539,2.539,0,0,0,0-4.959Z" style="fill:#c4a2fc"/><path d="M50.983,51a2.539,2.539,0,0,0,0,4.959,2.538,2.538,0,0,0,0-4.959Z" style="fill:#c4a2fc"/><path d="M56,37H29a3.01,3.01,0,0,0-2.4,1.2L18.518,48.976h-1A8,8,0,0,1,18,33H31a7,7,0,0,0,0-14H16a1,1,0,0,0,0,2H31a5,5,0,0,1,0,10H18a9.994,9.994,0,0,0-.52,19.974h1L26.6,61.8A3.014,3.014,0,0,0,29,63H56a3,3,0,0,0,3-3V40A3,3,0,0,0,56,37ZM25,51a1,1,0,1,1,1-1A1,1,0,0,1,25,51Zm10-4.479a4.263,4.263,0,0,1,3.995-4.48,4.509,4.509,0,0,1,0,8.959A4.262,4.262,0,0,1,35,46.521Zm6.323,12.3a1,1,0,0,1-.535-1.309l6.777-16.148a1,1,0,0,1,1.844.775L42.632,58.288A1,1,0,0,1,41.323,58.822Zm9.66-.863a4.509,4.509,0,0,1,0-8.959,4.509,4.509,0,0,1,0,8.959Z" style="fill:#c4a2fc"/><path d="M6,3h5.256L19.87,31.715l-3.456,3.457A4,4,0,0,0,19.242,42h2.019a5.5,5.5,0,1,0,8.478,0h9.522a5.5,5.5,0,1,0,8.478,0H51a1,1,0,0,0,0-2H19.242a2,2,0,0,1-1.414-3.414L21.414,33H42.3a7.474,7.474,0,0,0,5.32-2.2,7.568,7.568,0,0,0,1.818-2.941l5.379-16.141A3.549,3.549,0,0,0,55,10.581,3.585,3.585,0,0,0,51.419,7H14.544L12.958,1.713A1,1,0,0,0,12,1H6A1,1,0,0,0,6,3ZM29,45.5A3.5,3.5,0,1,1,25.5,42,3.5,3.5,0,0,1,29,45.5Zm18,0A3.5,3.5,0,1,1,43.5,42,3.5,3.5,0,0,1,47,45.5ZM51.419,9a1.581,1.581,0,0,1,1.5,2.081l-5.38,16.142A5.554,5.554,0,0,1,46.2,29.382,5.491,5.491,0,0,1,42.3,31H21.744l-6.6-22Z" style="fill:#151a6a"/><path d="M34,27a1,1,0,0,0,1-1V14a1,1,0,0,0-2,0V26A1,1,0,0,0,34,27Z" style="fill:#151a6a"/><path d="M24.03,14.243l3,12A1,1,0,0,0,28,27a.968.968,0,0,0,.243-.03,1,1,0,0,0,.728-1.213l-3-12a1,1,0,0,0-1.94.486Z" style="fill:#151a6a"/><path d="M39.758,26.97A.968.968,0,0,0,40,27a1,1,0,0,0,.969-.757l3-12a1,1,0,0,0-1.94-.486l-3,12A1,1,0,0,0,39.758,26.97Z" style="fill:#151a6a"/></svg>