<svg id="line" xmlns="http://www.w3.org/2000/svg" width="64" height="64" viewBox="0 0 64 64"><title>cheese cake</title><path d="M62,61H60V49.95294a7.95171,7.95171,0,0,1-5.17676-1.07306,6.24643,6.24643,0,0,0-6.45166,0,8.23644,8.23644,0,0,1-8.35107,0,6.23965,6.23965,0,0,0-6.44776,0,8.23424,8.23424,0,0,1-8.34961,0A5.78624,5.78624,0,0,0,22,48H20V61H18a1,1,0,0,0,0,2H62a1,1,0,0,0,0-2Z" style="fill:#c4a2fc"/><path d="M26.17432,47.12012a6.23873,6.23873,0,0,0,6.44726,0,8.23085,8.23085,0,0,1,8.3501,0,6.24137,6.24137,0,0,0,6.44873,0,8.23767,8.23767,0,0,1,8.35352,0A6.29586,6.29586,0,0,0,60,47.95911V38a5.00588,5.00588,0,0,0-5-5H53.61761a3.96355,3.96355,0,0,0-1.48986-6.81824A2.99477,2.99477,0,0,1,55,24a1,1,0,0,0,0-2,5.00038,5.00038,0,0,0-4.91046,4.1142A3.973,3.973,0,0,0,48.38239,33H31.61761a3.96355,3.96355,0,0,0-1.48986-6.81824A2.99477,2.99477,0,0,1,33,24a1,1,0,0,0,0-2,5.00038,5.00038,0,0,0-4.91046,4.1142A3.973,3.973,0,0,0,26.38239,33H25a5.00588,5.00588,0,0,0-5,5v8h2A7.72107,7.72107,0,0,1,26.17432,47.12012Z" style="fill:#c4a2fc"/><path d="M34,1a1.00067,1.00067,0,0,0-.44727.10547l-32,16A1.04277,1.04277,0,0,0,1,18V41a3.00328,3.00328,0,0,0,3,3H48a3.00328,3.00328,0,0,0,3-3V18A17.019,17.019,0,0,0,34,1Zm.23242,2.002A15.02049,15.02049,0,0,1,48.9668,17H6.23584ZM49,41a1.001,1.001,0,0,1-1,1H4a1.001,1.001,0,0,1-1-1V39H49Zm0-4H3V24H49Zm0-15H3V19H49Z" style="fill:#151a6a"/><path d="M7,29a2.00229,2.00229,0,0,1,2,2,1,1,0,0,0,2,0,4.00427,4.00427,0,0,0-4-4,1,1,0,0,0,0,2Z" style="fill:#151a6a"/><path d="M41,29a2.00229,2.00229,0,0,1,2,2,1,1,0,0,0,2,0,4.00427,4.00427,0,0,0-4-4,1,1,0,0,0,0,2Z" style="fill:#151a6a"/><path d="M16,34a.99974.99974,0,0,0,1-1,2.00229,2.00229,0,0,1,2-2,1,1,0,0,0,0-2,4.00427,4.00427,0,0,0-4,4A.99974.99974,0,0,0,16,34Z" style="fill:#151a6a"/><path d="M27,32a1,1,0,0,0,0-2,2.00229,2.00229,0,0,1-2-2,1,1,0,0,0-2,0A4.00427,4.00427,0,0,0,27,32Z" style="fill:#151a6a"/><path d="M32,34a4.00427,4.00427,0,0,0,4-4,1,1,0,0,0-2,0,2.00229,2.00229,0,0,1-2,2,1,1,0,0,0,0,2Z" style="fill:#151a6a"/></svg>